<svg width="135" height="136" viewBox="0 0 135 136" fill="none" xmlns="http://www.w3.org/2000/svg">
<path d="M135 67.6001C135 30.4001 104.7 0.100098 67.5 0.100098C30.2 0.100098 0 30.4001 0 67.6001C0 101.3 24.7 129.3 56.9 134.3V87.2001H39.8V67.6001H56.9V52.8001C56.9 35.9001 67 26.5001 82.4 26.5001C89.8 26.5001 97.5 27.8001 97.5 27.8001V44.4001H89C80.6 44.4001 78 49.6001 78 55.0001V67.6001H96.7L93.7 87.2001H78V134.3C110.3 129.3 135 101.3 135 67.6001Z" fill="#4676ED"/>
<path d="M93.6998 87.2L96.6998 67.6H77.9998V55C77.9998 49.6 80.5998 44.4 88.9998 44.4H97.4998V27.8C97.4998 27.8 89.7998 26.5 82.3998 26.5C66.9998 26.5 56.8998 35.9 56.8998 52.8V67.6H39.7998V87.2H56.8998V134.3C60.3665 134.833 63.8998 135.1 67.4998 135.1C71.0998 135.1 74.5998 134.833 77.9998 134.3V87.2H93.6998Z" fill="white"/>
</svg>
