<svg width="136" height="136" viewBox="0 0 136 136" fill="none" xmlns="http://www.w3.org/2000/svg">
<path d="M135.3 67.7998C135.3 105 105.1 135.3 67.7998 135.3C30.4998 135.3 0.299805 105 0.299805 67.7998C0.299805 30.4998 30.4998 0.299805 67.7998 0.299805C105.1 0.299805 135.3 30.4998 135.3 67.7998Z" fill="#FEFB00"/>
<path d="M39.3994 51.9996C39.3994 51.7329 39.3994 51.5329 39.3994 51.3996C39.3994 50.1996 39.3994 48.9996 39.3994 47.6996C39.4994 45.0996 39.7994 42.4996 40.3994 39.9996C41.1994 36.5996 42.6994 33.5329 44.8994 30.7996C48.6994 25.8996 53.6994 22.7996 59.5994 21.0996C62.7994 20.2996 65.9994 19.9996 69.1994 20.0996C72.6994 20.1996 76.0994 20.8996 79.3994 22.0996C82.7994 23.4996 85.7994 25.3996 88.4994 27.8996C89.9661 29.3663 91.266 30.9996 92.3994 32.7996C94.1994 35.4996 95.1994 38.4996 95.7994 41.6996C96.2994 44.3996 96.4994 47.0996 96.4994 49.7996C96.4994 50.4662 96.4994 51.1663 96.4994 51.8996C96.5994 51.9996 96.7994 51.8996 96.8994 51.8996C97.8994 51.6996 98.8994 51.5996 99.8994 51.5996C101.299 51.6996 102.599 51.9996 103.799 52.6996C105.933 53.8329 107.266 55.5996 107.799 57.9996C108.499 60.7996 107.799 63.2996 106.099 65.4996C105.199 66.5996 104.199 67.3996 102.999 68.1996C102.066 68.8663 101.133 69.4996 100.199 70.0996C99.7994 70.3663 99.3994 70.6329 98.9994 70.8996C98.8661 70.9663 98.7327 71.0329 98.5994 71.0996C97.9994 71.5996 97.8994 71.9996 98.0994 72.6996C98.2327 72.9663 98.3327 73.1996 98.3994 73.3996C99.6994 75.8996 101.399 78.0996 103.399 80.0996C105.599 82.1996 108.099 83.8996 110.799 85.2996C111.533 85.6996 112.266 86.0663 112.999 86.3996C113.599 86.7996 114.166 87.2329 114.699 87.6996C115.766 88.7663 116.333 90.0663 116.399 91.5996C116.499 92.8996 116.099 93.9996 115.399 95.0996C114.666 96.2329 113.699 97.1663 112.499 97.8996C111.499 98.4996 110.499 98.9996 109.499 99.3996C108.433 99.8663 107.333 100.266 106.199 100.6C105.799 100.733 105.433 100.866 105.099 101C104.633 101.133 104.299 101.433 104.099 101.9C104.033 102.1 103.933 102.333 103.799 102.6C102.899 105.1 101.099 106.6 98.5994 107.2C97.5994 107.4 96.6994 107.5 95.6994 107.5C94.5994 107.6 93.4994 107.6 92.4994 107.7C90.7661 107.766 89.066 108.066 87.3994 108.6C86.7327 108.8 86.066 109.1 85.3994 109.5C84.5327 110.033 83.6994 110.533 82.8994 111C81.3994 111.9 79.8994 112.8 78.2994 113.4C76.0994 114.4 73.7994 115.033 71.3994 115.3C69.266 115.566 67.166 115.6 65.0994 115.4C61.8327 115.066 58.766 114.133 55.8994 112.6C54.6994 112 53.5994 111.4 52.4994 110.7C51.9661 110.366 51.4661 110.066 50.9994 109.8C49.5994 108.9 47.9994 108.4 46.2994 108C44.6994 107.7 42.9994 107.6 41.2994 107.6C40.1994 107.5 39.0994 107.5 37.9994 107.3C37.1327 107.166 36.3327 106.9 35.5994 106.5C33.9994 105.766 32.8661 104.566 32.1994 102.9C32.0661 102.633 31.9327 102.333 31.7994 102C31.5994 101.466 31.2327 101.1 30.6994 100.9C30.3661 100.766 29.9994 100.666 29.5994 100.6C27.666 100.066 25.7994 99.2996 23.9994 98.2996C22.8994 97.5996 21.7994 96.7996 20.9994 95.7996C20.3994 94.9996 19.8994 94.1996 19.6994 93.2996C19.1994 91.2996 19.5994 89.4996 20.9994 87.8996C21.3994 87.3996 21.9994 86.9996 22.5994 86.6996C23.1994 86.2996 23.7994 85.933 24.3994 85.5996C26.6994 84.4996 28.8994 83.0996 30.8994 81.4996C33.2994 79.4996 35.2994 77.2996 36.7994 74.6996C36.9994 74.1996 37.2994 73.6996 37.4994 73.1996C37.6994 72.9329 37.7994 72.6329 37.7994 72.2996C37.866 71.9662 37.7661 71.6663 37.4994 71.3996C37.2994 71.1996 37.0994 70.9996 36.7994 70.7996C35.5327 69.9996 34.2661 69.1662 32.9994 68.2996C32.1994 67.7662 31.4327 67.1662 30.6994 66.4996C29.6994 65.4996 28.7994 64.2996 28.2994 62.8996C27.1994 59.7996 27.8994 56.2996 30.2994 53.9996C31.4994 52.7996 32.9994 51.9996 34.7994 51.6996C36.1327 51.4996 37.466 51.5663 38.7994 51.8996C38.8994 51.8996 39.0994 51.8996 39.3994 51.9996Z" fill="black"/>
<path d="M90.9991 51.8995C90.9991 53.7662 90.9324 55.5995 90.7991 57.3995C90.7991 57.7329 90.7991 58.0662 90.7991 58.3995C90.7991 59.0995 91.0991 59.2995 91.7991 59.2995C92.0658 59.2328 92.3324 59.1662 92.5991 59.0995C93.2657 58.8995 93.9324 58.6662 94.5991 58.3995C95.6991 57.8995 96.7991 57.4995 97.9991 57.1995C98.7991 57.0995 99.5991 56.9995 100.399 57.1995C102.199 57.5995 103.099 59.3995 102.399 61.0995C102.199 61.5662 101.932 61.9662 101.599 62.2995C101.132 62.8328 100.632 63.2995 100.099 63.6995C99.3658 64.1662 98.6658 64.5995 97.9991 64.9995C96.8658 65.7995 95.7324 66.5662 94.5991 67.2995C94.1324 67.6328 93.6658 67.9662 93.1991 68.2995C92.9324 68.4995 92.6991 68.6995 92.4991 68.8995C92.0991 69.4329 91.8991 69.9995 91.8991 70.5995C91.9657 71.2662 92.0658 71.8662 92.1991 72.3995C92.7991 74.2995 93.5991 76.0995 94.5991 77.7995C96.4991 80.8995 98.8991 83.4995 101.699 85.7995C104.099 87.7995 106.699 89.2995 109.399 90.6995C109.666 90.8329 109.899 90.9662 110.099 91.0995C110.299 91.2329 110.466 91.3662 110.599 91.4995C110.799 91.7662 110.799 92.0328 110.599 92.2995C110.466 92.5662 110.299 92.7995 110.099 92.9995C109.766 93.1995 109.432 93.3996 109.099 93.5995C107.499 94.4995 105.899 95.0995 104.199 95.4995C103.466 95.6995 102.732 95.8996 101.999 96.0995C101.466 96.2995 100.966 96.5328 100.499 96.7995C99.6991 97.1995 99.2991 97.7995 99.0991 98.6995C98.9991 99.0995 98.9991 99.5995 98.8991 100.1C98.6991 101.3 98.1991 101.7 97.0991 102C96.6324 102.066 96.1991 102.1 95.7991 102.1C94.7324 102.166 93.6657 102.2 92.5991 102.2C90.2991 102.4 87.8991 102.7 85.5991 103.5C84.6657 103.833 83.7657 104.233 82.8991 104.7C81.9657 105.233 81.0324 105.8 80.0991 106.4C78.5991 107.2 77.1991 108.1 75.5991 108.7C73.7991 109.366 71.9324 109.8 69.9991 110C68.3991 110.133 66.7991 110.1 65.1991 109.9C62.8658 109.633 60.6324 108.966 58.4991 107.9C57.4991 107.366 56.4991 106.8 55.4991 106.2C54.8324 105.8 54.1324 105.366 53.3991 104.9C51.7991 103.9 49.8991 103.3 47.9991 102.9C46.2658 102.5 44.5324 102.266 42.7991 102.2C41.8658 102.2 40.9324 102.166 39.9991 102.1C39.4658 102.033 38.9324 101.966 38.3991 101.9C37.6991 101.7 37.1991 101.2 37.0991 100.5C37.0324 100.1 36.9657 99.6662 36.8991 99.1995C36.8991 99.1329 36.8991 99.0662 36.8991 98.9995C36.6991 97.8995 36.1991 97.0995 35.0991 96.5995C34.4991 96.3329 33.8658 96.0995 33.1991 95.8995C31.9991 95.5995 30.7991 95.2995 29.6991 94.8995C28.6991 94.5662 27.7324 94.1329 26.7991 93.5995C26.5324 93.4662 26.2658 93.2995 25.9991 93.0995C25.8658 92.9662 25.6991 92.8329 25.4991 92.6995C24.9658 92.1662 25.0325 91.6662 25.6991 91.1995C25.9991 90.8995 26.2991 90.7995 26.5991 90.5995C29.0657 89.3995 31.3658 87.9995 33.4991 86.3995C36.4991 84.0995 39.0991 81.2995 41.0991 78.0995C42.1991 76.2995 43.0991 74.4995 43.5991 72.4995C43.7991 71.8328 43.9324 71.1995 43.9991 70.5995C43.9991 69.9329 43.7658 69.3662 43.2991 68.8995C43.0324 68.6329 42.7658 68.3662 42.4991 68.0995C41.6324 67.4995 40.7324 66.8995 39.7991 66.2995C38.5991 65.4995 37.4324 64.7328 36.2991 63.9995C35.6991 63.5995 35.1324 63.1662 34.5991 62.6995C34.2657 62.3662 33.9658 61.9995 33.6991 61.5995C33.1658 60.6662 33.0991 59.6995 33.4991 58.6995C33.7658 58.0329 34.2658 57.5662 34.9991 57.2995C35.6991 56.9995 36.4991 56.9995 37.2991 57.0995C38.1991 57.2995 39.0991 57.5995 39.8991 57.8995C40.8324 58.2329 41.7324 58.5662 42.5991 58.8995C42.9991 58.9995 43.3991 59.1995 43.8991 59.2995C43.9657 59.2995 44.0658 59.2995 44.1991 59.2995C44.6991 59.2995 45.0991 59.0995 45.0991 58.3995C45.0991 57.8662 45.0658 57.2995 44.9991 56.6995C44.7991 53.6995 44.6991 50.5995 44.8991 47.4995C44.9991 45.4995 45.1991 43.5995 45.5991 41.6995C46.1991 39.0329 47.3324 36.5995 48.9991 34.3995C51.9991 30.3995 56.0991 27.7995 60.8991 26.3995C63.4991 25.6995 66.1991 25.4995 68.9991 25.4995C71.7991 25.5995 74.5991 26.1995 77.2991 27.1995C79.8991 28.1995 82.1991 29.5995 84.1991 31.4995C86.7991 33.7995 88.6991 36.5995 89.7991 39.8995C90.2658 41.4329 90.5991 42.9662 90.7991 44.4995C91.0991 46.9995 91.0991 49.3995 90.9991 51.8995Z" fill="white"/>
</svg>
