<svg width="136" height="136" viewBox="0 0 136 136" fill="none" xmlns="http://www.w3.org/2000/svg">
<path d="M135.3 67.7002C135.3 104.9 105.1 135.2 67.7998 135.2C30.4998 135.2 0.299805 104.9 0.299805 67.7002C0.299805 30.4002 30.4998 0.200195 67.7998 0.200195C105.1 0.200195 135.3 30.4002 135.3 67.7002Z" fill="#DA0000"/>
<path fill-rule="evenodd" clip-rule="evenodd" d="M112.8 67.7002C112.8 67.7002 112.8 82.3002 110.9 89.3002C109.9 93.2002 106.8 96.2002 103 97.3002C95.8998 99.2002 67.7998 99.2002 67.7998 99.2002C67.7998 99.2002 39.6998 99.2002 32.5998 97.3002C28.7998 96.2002 25.6998 93.2002 24.6998 89.3002C22.7998 82.3002 22.7998 67.7002 22.7998 67.7002C22.7998 67.7002 22.7998 53.0002 24.6998 46.0002C25.6998 42.1002 28.7998 39.1002 32.5998 38.0002C39.6998 36.2002 67.7998 36.2002 67.7998 36.2002C67.7998 36.2002 95.8998 36.2002 103 38.0002C106.8 39.1002 109.9 42.1002 110.9 46.0002C112.8 53.0002 112.8 67.7002 112.8 67.7002ZM82.1998 67.7002L58.7998 54.2002V81.2002L82.1998 67.7002Z" fill="white"/>
</svg>
