<svg width="136" height="136" viewBox="0 0 136 136" fill="none" xmlns="http://www.w3.org/2000/svg">
<path d="M135.5 67.6001C135.5 104.9 105.2 135.1 68 135.1C30.7 135.1 0.5 104.9 0.5 67.6001C0.5 30.4001 30.7 0.100098 68 0.100098C105.2 0.100098 135.5 30.4001 135.5 67.6001Z" fill="url(#paint0_linear_950_7299)"/>
<path fill-rule="evenodd" clip-rule="evenodd" d="M113 66.3C113 89.9 93.7 109.1 70.1 109.1C63 109.1 55.9 107.3 49.7 103.9L27 109.8L33 87.7C29.3 81.2 27.3 73.8 27.3 66.3C27.3 42.7 46.5 23.5 70.1 23.5C81.6 23.5 92.4 27.9 100.4 36C108.5 44.1 113 54.9 113 66.3ZM105.7 66.3C105.7 56.8 102 47.8 95.3 41.1C88.6 34.4 79.7 30.7 70.2 30.7C50.5 30.7 34.6 46.6 34.6 66.3C34.6 73 36.4 79.5 40 85.2L40.8 86.5L37.2 99.7L50.7 96.1L52 96.9C57.5 100.1 63.7 101.9 70.1 101.9C89.8 101.9 105.7 85.9 105.7 66.3ZM91.7 76.5C92 76.9 92 79.1 91.1 81.6C90.2 84.1 85.9 86.3 83.9 86.6C82 86.9 79.7 87 77.1 86.2C75.6 85.7 73.6 85.1 71 84C60.3 79.3 53.3 68.5 52.8 67.8C52.2 67.1 48.4 62 48.4 56.7C48.4 51.5 51.2 48.9 52.1 47.8C53.1 46.8 54.3 46.5 55 46.5C55.7 46.5 56.4 46.5 57 46.5C57.7 46.6 58.6 46.3 59.4 48.4C60.3 50.5 62.5 55.8 62.7 56.3C63 56.8 63.2 57.5 62.8 58.2C62.5 58.9 62.3 59.3 61.8 60C61.2 60.6 60.6 61.4 60.2 61.8C59.6 62.4 59.1 62.9 59.7 64C60.3 65.1 62.5 68.6 65.6 71.4C69.7 75.1 73.2 76.2 74.2 76.7C75.3 77.3 75.9 77.2 76.6 76.5C77.2 75.8 79.2 73.3 79.9 72.3C80.7 71.2 81.4 71.4 82.4 71.7C83.3 72.1 88.6 74.7 89.7 75.2C90.7 75.8 91.5 76 91.7 76.5Z" fill="white"/>
<defs>
<linearGradient id="paint0_linear_950_7299" x1="0.5" y1="125.3" x2="0.5" y2="-9.69991" gradientUnits="userSpaceOnUse">
<stop stop-color="#78CD51"/>
<stop offset="1" stop-color="#A0FC84"/>
</linearGradient>
</defs>
</svg>
