<svg width="207" height="185" viewBox="0 0 207 185" fill="none" xmlns="http://www.w3.org/2000/svg">
<path d="M140.334 26.0408C153.818 36.8493 165.029 50.357 170.334 67.0408C170.632 67.9316 170.93 68.8223 171.236 69.74C177.18 90.6929 173.795 113.487 163.471 132.381C152.073 152.307 134.815 165.614 112.822 172.072C88.6145 177.725 67.4073 172.87 46.459 160.318C30.1884 149.564 17.2315 131.834 12.7898 112.696C9.51149 95.8162 9.38175 77.9468 16.334 62.0408C16.5964 61.4282 16.8587 60.8156 17.1289 60.1844C20.7398 51.8933 25.2619 44.7521 31.334 38.0408C31.9992 37.2829 32.6643 36.5249 33.3497 35.744C61.0214 6.02249 107.56 3.16324 140.334 26.0408Z" fill="#FEFEFD"/>
<path d="M151.334 21.4781C170.39 38.2321 182.308 60.0053 184.541 85.3951C185.099 94.889 184.174 103.687 181.892 112.904C181.297 116.244 181.097 117.891 182.334 121.041C184.195 123.341 186.301 125.334 188.459 127.353C189.649 128.502 190.838 129.653 192.025 130.806C192.884 131.637 192.884 131.637 193.76 132.484C196.317 135.013 198.645 137.716 200.967 140.459C202.455 142.227 202.455 142.227 204.771 144.416C206.334 146.041 206.334 146.041 206.334 148.041C205.149 148.008 203.965 147.976 202.745 147.942C198.303 147.836 193.864 147.811 189.421 147.809C187.507 147.797 185.594 147.764 183.681 147.708C172.01 147.008 172.01 147.008 161.772 151.612C159.804 153.626 158.27 155.651 156.599 157.947C145.883 172.58 126.387 179.599 109.334 183.041C108.549 183.215 107.763 183.389 106.955 183.569C83.4747 187.795 58.8976 181.888 39.4079 168.431C19.5288 153.829 5.28353 132.297 0.767308 107.892C-1.45227 88.176 1.06618 70.0622 9.33371 52.0406C9.995 50.5924 9.995 50.5924 10.6697 49.1149C21.7056 27.0749 42.4183 12.1891 65.1306 4.03674C94.1944 -5.30518 128.14 1.99988 151.334 21.4781ZM30.7478 38.2242C17.9385 53.1684 10.9237 71.0436 11.0212 90.7281C11.0261 91.8892 11.031 93.0502 11.0361 94.2465C11.1462 102.282 11.6817 109.404 14.3337 117.041C14.6856 118.12 15.0375 119.199 15.4001 120.31C20.0419 133.469 27.6827 143.245 37.3337 153.041C38.2096 153.936 38.2096 153.936 39.1032 154.849C54.3662 169.108 75.9649 174.672 96.2634 174.283C118.041 173.461 137.994 163.536 152.986 147.838C169.622 128.018 175.14 105.477 173.334 80.0406C170.91 60.2292 159.504 41.7617 144.334 29.0406C108.453 1.97235 61.6774 6.06721 30.7478 38.2242Z" fill="#FA6F0C"/>
<path d="M65.5564 54.4429C70.8531 55.2809 73.1523 57.8232 76.7712 61.603C77.4074 62.2121 78.0436 62.8212 78.699 63.4487C81.8244 66.6212 83.2147 68.2934 83.9314 72.7905C83.0353 77.6634 81.0226 78.8897 77.3337 82.0405C80.6172 91.0336 86.319 97.8398 94.0837 103.291C94.6384 103.685 95.1931 104.08 95.7647 104.487C98.0867 106.023 99.7087 107.07 102.541 106.935C104.663 105.97 104.663 105.97 107.271 103.478C110.334 101.041 110.334 101.041 112.787 100.698C117.44 101.323 120.02 104.887 123.209 108.103C123.91 108.76 124.611 109.417 125.334 110.093C130.302 115.037 130.302 115.037 130.455 119.861C128.784 124.6 125.707 126.572 121.541 129.15C114.669 131.923 106.009 130.705 99.2712 128.103C80.5049 119.155 62.8265 102.868 55.2205 83.2593C53.4396 76.795 52.8198 69.811 55.3611 63.4819C56.5657 61.4864 57.7818 59.776 59.3337 58.0405C59.7398 57.4772 60.1459 56.9139 60.5642 56.3335C62.3337 55.0405 62.3337 55.0405 65.5564 54.4429Z" fill="#FD700C"/>
<path d="M172.334 93.0405C172.664 93.0405 172.994 93.0405 173.334 93.0405C174.684 114.309 164.812 133.601 151.322 149.396C137.267 164.49 116.926 173.234 96.5021 174.357C74.0821 175.122 53.5891 167.786 36.7521 152.732C22.8363 139.359 12.0935 120.993 11.213 101.337C11.2097 99.2381 11.2653 97.1387 11.3341 95.0405C13.1327 98.1718 14.0465 101.405 14.9816 104.878C18.4738 117.775 24.7773 133.336 36.3341 141.041C36.3341 141.701 36.3341 142.361 36.3341 143.041C37.1714 143.42 37.1714 143.42 38.0255 143.806C40.6809 145.226 42.8927 146.945 45.2716 148.791C51.2365 153.194 57.5109 156.199 64.3341 159.041C65.0792 159.383 65.8243 159.726 66.5919 160.08C84.0554 166.199 106.397 165.396 123.334 158.041C124.307 157.622 124.307 157.622 125.299 157.196C138.526 151.293 153.132 140.478 159.334 127.041C159.994 127.041 160.654 127.041 161.334 127.041C161.705 125.803 161.705 125.803 162.084 124.541C163.334 121.041 163.334 121.041 165.209 117.541C169.094 110.003 171.079 101.385 172.334 93.0405Z" fill="#E7E4E2"/>
<path d="M52.334 17.0405C53.654 17.7005 54.974 18.3605 56.334 19.0405C53.1975 21.4676 49.9373 23.6123 46.584 25.728C45.5991 26.3506 44.6143 26.9733 43.5996 27.6147C42.852 28.0853 42.1043 28.5558 41.334 29.0405C40.6599 27.7736 39.995 26.5018 39.334 25.228C38.9627 24.5203 38.5915 23.8126 38.209 23.0835C37.334 21.0405 37.334 21.0405 37.334 18.0405C39.809 18.5355 39.809 18.5355 42.334 19.0405C42.334 20.3605 42.334 21.6805 42.334 23.0405C45.634 21.7205 48.934 20.4005 52.334 19.0405C52.334 18.3805 52.334 17.7205 52.334 17.0405Z" fill="#FA7415"/>
<path d="M133.334 13.0405C133.334 13.7005 133.334 14.3605 133.334 15.0405C134.984 15.0405 136.634 15.0405 138.334 15.0405C138.004 15.7005 137.674 16.3605 137.334 17.0405C136.344 17.3705 135.354 17.7005 134.334 18.0405C134.664 19.6905 134.994 21.3405 135.334 23.0405C126.919 19.5755 126.919 19.5755 118.334 16.0405C119.654 15.7105 120.974 15.3805 122.334 15.0405C123.489 14.6899 124.644 14.3393 125.834 13.978C129.334 13.0405 129.334 13.0405 133.334 13.0405Z" fill="#FC7414"/>
<path d="M40.334 155.041C41.7508 155.352 43.1674 155.665 44.584 155.978C45.7673 156.239 45.7673 156.239 46.9746 156.505C49.1028 156.988 51.2193 157.502 53.334 158.041C53.334 161.041 53.334 161.041 52.334 163.041C47.7773 161.522 44.0168 159.087 40.334 156.041C40.334 155.711 40.334 155.381 40.334 155.041Z" fill="#E8DDD5"/>
<path d="M55.334 64.0405C56.8965 65.603 56.8965 65.603 58.334 68.0405C58.0955 72.4134 57.1415 76.0639 55.334 80.0405C55.004 80.0405 54.674 80.0405 54.334 80.0405C54.3071 77.7489 54.2876 75.4572 54.2715 73.1655C54.2599 71.8894 54.2483 70.6132 54.2363 69.2983C54.334 66.0405 54.334 66.0405 55.334 64.0405Z" fill="#FD7719"/>
<path d="M157.334 152.041C158.324 152.371 159.314 152.701 160.334 153.041C158.843 156.836 156.577 158.651 153.334 161.041C153.004 159.721 152.674 158.401 152.334 157.041C152.994 157.041 153.654 157.041 154.334 157.041C154.334 156.051 154.334 155.061 154.334 154.041C155.324 153.381 156.314 152.721 157.334 152.041Z" fill="#ED6A0E"/>
<path d="M35.334 23.0405C36.984 23.0405 38.634 23.0405 40.334 23.0405C40.664 25.0205 40.994 27.0005 41.334 29.0405C40.674 29.0405 40.014 29.0405 39.334 29.0405C39.334 28.3805 39.334 27.7205 39.334 27.0405C38.344 27.0405 37.354 27.0405 36.334 27.0405C36.334 27.7005 36.334 28.3605 36.334 29.0405C35.014 29.3705 33.694 29.7005 32.334 30.0405C32.6434 29.4424 32.9527 28.8443 33.2715 28.228C34.4361 25.951 34.4361 25.951 35.334 23.0405Z" fill="#FD6E08"/>
<path d="M59.334 12.0405C63.209 13.7905 63.209 13.7905 64.334 16.0405C58.584 19.0405 58.584 19.0405 56.334 19.0405C56.9468 16.0788 57.5877 14.6599 59.334 12.0405Z" fill="#FD7310"/>
<path d="M167.334 123.041C168.324 124.031 169.314 125.021 170.334 126.041C170.004 127.031 169.674 128.021 169.334 129.041C166.771 130.228 166.771 130.228 164.334 131.041C166.209 125.291 166.209 125.291 167.334 123.041Z" fill="#FB771B"/>
<path d="M80.334 90.0405C81.984 91.6905 83.634 93.3405 85.334 95.0405C84.674 95.7005 84.014 96.3605 83.334 97.0405C82.344 96.7105 81.354 96.3805 80.334 96.0405C80.334 95.3805 80.334 94.7205 80.334 94.0405C79.674 93.7105 79.014 93.3805 78.334 93.0405C78.994 92.0505 79.654 91.0605 80.334 90.0405Z" fill="#FC791C"/>
<path d="M121.334 176.041C123.314 176.041 125.294 176.041 127.334 176.041C127.334 176.701 127.334 177.361 127.334 178.041C125.024 178.371 122.714 178.701 120.334 179.041C120.664 178.051 120.994 177.061 121.334 176.041Z" fill="#EB680B"/>
<path d="M120.334 167.041C120.664 167.701 120.994 168.361 121.334 169.041C119.024 169.701 116.714 170.361 114.334 171.041C114.004 170.051 113.674 169.061 113.334 168.041C115.797 166.809 117.613 166.969 120.334 167.041Z" fill="#EADBD1"/>
<path d="M200.334 141.041C202.041 142.321 203.708 143.658 205.334 145.041C205.334 145.701 205.334 146.361 205.334 147.041C204.014 147.041 202.694 147.041 201.334 147.041C201.004 145.061 200.674 143.081 200.334 141.041Z" fill="#F16B0E"/>
</svg>
