<svg width="136" height="136" viewBox="0 0 136 136" fill="none" xmlns="http://www.w3.org/2000/svg">
<path d="M135.6 67.6001C135.6 104.9 105.4 135.1 68.0997 135.1C30.8997 135.1 0.599609 104.9 0.599609 67.6001C0.599609 30.4001 30.8997 0.100098 68.0997 0.100098C105.4 0.100098 135.6 30.4001 135.6 67.6001Z" fill="#5A99EC"/>
<path d="M54.4999 106.5C87.4999 106.5 105.5 79.2 105.5 55.5C105.5 54.7667 105.467 54 105.4 53.2C108.9 50.7 112 47.5 114.4 43.9C111.2 45.4 107.7 46.3 104.1 46.7C107.8 44.5 110.6 41 112 36.8C108.5 38.9 104.7 40.4 100.6 41.2C97.3 37.7 92.6999 35.5 87.4999 35.5C77.5999 35.5 69.6 43.5 69.6 53.4C69.6 54.8667 69.7333 56.2333 69.9999 57.5C55.0999 56.8 41.9 49.6 33.1 38.8C31.6 41.5 30.7 44.5 30.7 47.8C30.7 54 33.8 59.5 38.6 62.7C35.7 62.6 32.9 61.8 30.5 60.5C30.5 60.5667 30.5 60.6333 30.5 60.7C30.5 69.4 36.7 76.6 44.9 78.3C43.3666 78.7 41.8 78.9 40.2 78.9C39 78.9 37.8667 78.8 36.8 78.6C39.1 85.7 45.7 90.9 53.6 91C47.4 95.9 39.7 98.7 31.3 98.7C29.8333 98.7 28.4 98.6333 27 98.5C34.9 103.6 44.3999 106.5 54.4999 106.5Z" fill="white"/>
</svg>
